<?xml version="1.0" encoding="UTF-8"?>
<svg id="Layer_1" xmlns="http://www.w3.org/2000/svg" version="1.1" xmlns:xlink="http://www.w3.org/1999/xlink" viewBox="0 0 1080 1080">
  <!-- Generator: Adobe Illustrator 29.0.1, SVG Export Plug-In . SVG Version: 2.1.0 Build 192)  -->
  <defs>
    <style>
      .st0 {
        fill: url(#linear-gradient2);
      }

      .st1 {
        fill: url(#linear-gradient10);
      }

      .st2 {
        fill: url(#linear-gradient21);
      }

      .st3 {
        fill: #fff;
      }

      .st4 {
        fill: url(#linear-gradient1);
      }

      .st5 {
        fill: url(#linear-gradient9);
      }

      .st6 {
        fill: url(#linear-gradient18);
      }

      .st7 {
        fill: url(#linear-gradient23);
      }

      .st8 {
        fill: url(#linear-gradient8);
      }

      .st9 {
        fill: url(#linear-gradient11);
      }

      .st10 {
        fill: url(#linear-gradient16);
      }

      .st11 {
        fill: url(#linear-gradient24);
      }

      .st12 {
        fill: url(#linear-gradient22);
      }

      .st13 {
        fill: url(#linear-gradient19);
      }

      .st14 {
        fill: url(#linear-gradient12);
      }

      .st15 {
        fill: url(#linear-gradient7);
      }

      .st16 {
        fill: url(#linear-gradient20);
      }

      .st17 {
        fill: url(#linear-gradient4);
      }

      .st18 {
        fill: url(#linear-gradient14);
      }

      .st19 {
        fill: url(#linear-gradient5);
      }

      .st20 {
        fill: url(#linear-gradient3);
      }

      .st21 {
        fill: url(#linear-gradient25);
      }

      .st22 {
        fill: url(#linear-gradient15);
      }

      .st23 {
        fill: url(#linear-gradient17);
      }

      .st24 {
        fill: url(#linear-gradient6);
      }

      .st25 {
        fill: url(#linear-gradient13);
      }

      .st26 {
        fill: url(#linear-gradient);
      }
    </style>
    <linearGradient id="linear-gradient" x1="946" y1="846.3" x2="946" y2="435.3" gradientTransform="translate(-406)" gradientUnits="userSpaceOnUse">
      <stop offset="0" stop-color="#2e2f8a"/>
      <stop offset="1" stop-color="#3488cf"/>
    </linearGradient>
    <linearGradient id="linear-gradient1" x1="946" y1="487.1" x2="946" y2="830.9" xlink:href="#linear-gradient"/>
    <linearGradient id="linear-gradient2" x1="460.2" y1="301.3" x2="619.8" y2="301.3" gradientTransform="matrix(1,0,0,1,0,0)" xlink:href="#linear-gradient"/>
    <linearGradient id="linear-gradient3" x1="218.9" y1="739.4" x2="218.9" y2="441.9" gradientTransform="matrix(1,0,0,1,0,0)" xlink:href="#linear-gradient"/>
    <linearGradient id="linear-gradient4" x1="139.1" y1="301.3" x2="298.7" y2="301.3" gradientTransform="matrix(1,0,0,1,0,0)" xlink:href="#linear-gradient"/>
    <linearGradient id="linear-gradient5" x1="781.3" y1="301.3" x2="940.9" y2="301.3" gradientTransform="matrix(1,0,0,1,0,0)" xlink:href="#linear-gradient"/>
    <linearGradient id="linear-gradient6" x1="183.4" y1="393" x2="183.4" y2="847.4" gradientTransform="matrix(1,0,0,1,0,0)" xlink:href="#linear-gradient"/>
    <linearGradient id="linear-gradient7" x1="218.9" y1="393" x2="218.9" y2="847.4" gradientTransform="matrix(1,0,0,1,0,0)" xlink:href="#linear-gradient"/>
    <linearGradient id="linear-gradient8" x1="254.4" y1="739.4" x2="254.4" y2="441.9" gradientTransform="matrix(1,0,0,1,0,0)" xlink:href="#linear-gradient"/>
    <linearGradient id="linear-gradient9" x1="861.1" y1="739.4" x2="861.1" y2="441.9" gradientTransform="matrix(1,0,0,1,0,0)" xlink:href="#linear-gradient"/>
    <linearGradient id="linear-gradient10" x1="825.6" y1="393" x2="825.6" y2="847.4" gradientTransform="matrix(1,0,0,1,0,0)" xlink:href="#linear-gradient"/>
    <linearGradient id="linear-gradient11" x1="861.1" y1="393" x2="861.1" y2="847.4" gradientTransform="matrix(1,0,0,1,0,0)" xlink:href="#linear-gradient"/>
    <linearGradient id="linear-gradient12" x1="896.6" y1="739.4" x2="896.6" y2="441.9" gradientTransform="matrix(1,0,0,1,0,0)" xlink:href="#linear-gradient"/>
    <linearGradient id="linear-gradient13" x1="540" y1="834.1" x2="540" y2="474.3" gradientTransform="matrix(1,0,0,1,0,0)" xlink:href="#linear-gradient"/>
    <linearGradient id="linear-gradient14" x1="504.5" y1="445" x2="504.5" y2="786.3" gradientTransform="matrix(1,0,0,1,0,0)" xlink:href="#linear-gradient"/>
    <linearGradient id="linear-gradient15" x1="540" y1="445" x2="540" y2="786.3" gradientTransform="matrix(1,0,0,1,0,0)" xlink:href="#linear-gradient"/>
    <linearGradient id="linear-gradient16" x1="575.5" y1="834.1" x2="575.5" y2="474.3" gradientTransform="matrix(1,0,0,1,0,0)" xlink:href="#linear-gradient"/>
    <linearGradient id="linear-gradient17" x1="1178.3" y1="559.9" x2="2098.4" y2="559.9" gradientTransform="matrix(1,0,0,1,0,0)" xlink:href="#linear-gradient"/>
    <linearGradient id="linear-gradient18" x1="1178.3" y1="691" x2="2098.4" y2="691" gradientTransform="matrix(1,0,0,1,0,0)" xlink:href="#linear-gradient"/>
    <linearGradient id="linear-gradient19" x1="1178.3" y1="301.3" x2="2098.4" y2="301.3" gradientTransform="matrix(1,0,0,1,0,0)" xlink:href="#linear-gradient"/>
    <linearGradient id="linear-gradient20" x1="1178.3" y1="301.3" x2="2098.4" y2="301.3" gradientTransform="matrix(1,0,0,1,0,0)" xlink:href="#linear-gradient"/>
    <linearGradient id="linear-gradient21" x1="1178.3" y1="301.3" x2="2098.4" y2="301.3" gradientTransform="matrix(1,0,0,1,0,0)" xlink:href="#linear-gradient"/>
    <linearGradient id="linear-gradient22" x1="1178.3" y1="559.9" x2="2098.4" y2="559.9" gradientTransform="matrix(1,0,0,1,0,0)" xlink:href="#linear-gradient"/>
    <linearGradient id="linear-gradient23" x1="1178.3" y1="691" x2="2098.4" y2="691" gradientTransform="matrix(1,0,0,1,0,0)" xlink:href="#linear-gradient"/>
    <linearGradient id="linear-gradient24" x1="1178.3" y1="559.9" x2="2098.4" y2="559.9" gradientTransform="matrix(1,0,0,1,0,0)" xlink:href="#linear-gradient"/>
    <linearGradient id="linear-gradient25" x1="1178.3" y1="691" x2="2098.4" y2="691" gradientTransform="matrix(1,0,0,1,0,0)" xlink:href="#linear-gradient"/>
  </defs>
  <g>
    <path class="st26" d="M688.7,457c-41.1,1.6-78.5,18-106.9,44.1,4.6,7.2,8.7,14.7,12.5,22.4,15,30.8,23.5,65.4,23.5,102s-8.4,71.2-23.5,102c-22.9-22.7-38.2-53-41.7-86.8.5-5,.7-10.1.7-15.3s-.2-10.2-.7-15.3c-1.6-17.6-5.9-34.4-12.5-50-9.6-22.6-23.9-42.8-41.8-59.1-28.5-26.1-65.8-42.5-106.9-44.1v-64.6c57.1,1.6,109,23.8,148.7,59.3,39.7-35.6,91.6-57.7,148.7-59.3v64.6Z"/>
    <path class="st4" d="M688.7,793.9v64.6c-57.1-1.6-109-23.8-148.7-59.3-39.7,35.5-91.6,57.7-148.7,59.3v-64.6c41.1-1.6,78.5-18,106.9-44.1-4.5-7.2-8.7-14.7-12.5-22.4-15-30.8-23.5-65.4-23.5-102s8.4-71.2,23.5-102c22.9,22.7,38.2,53,41.7,86.7h0c-.5,5.1-.7,10.1-.7,15.3s.2,10.2.7,15.3h0c1.6,17.6,5.9,34.4,12.5,50,9.5,22.6,23.9,42.8,41.7,59.1,28.4,26,65.8,42.4,106.9,44.1Z"/>
    <path class="st0" d="M619.8,301.3c0,44.1-35.8,79.8-79.9,79.8s-79.8-35.7-79.8-79.8,35.8-79.8,79.8-79.8,79.9,35.7,79.9,79.8Z"/>
    <path class="st20" d="M367.6,457c-41.1,1.6-78.5,18-106.9,44.1,4.6,7.2,8.7,14.7,12.5,22.4,15,30.8,23.5,65.4,23.5,102s-8.4,71.2-23.5,102c-22.9-22.7-38.2-53-41.7-86.8.5-5,.7-10.1.7-15.3s-.2-10.2-.7-15.3c-1.6-17.6-5.9-34.4-12.5-50-9.6-22.6-23.9-42.8-41.8-59.1-28.5-26.1-65.8-42.5-106.9-44.1v-64.6c57.1,1.6,109,23.8,148.7,59.3,39.7-35.6,91.6-57.7,148.7-59.3v64.6Z"/>
    <path class="st17" d="M298.7,301.3c0,44.1-35.8,79.8-79.9,79.8s-79.8-35.7-79.8-79.8,35.8-79.8,79.8-79.8,79.9,35.7,79.9,79.8Z"/>
    <path class="st19" d="M940.9,301.3c0,44.1-35.8,79.8-79.9,79.8s-79.8-35.7-79.8-79.8,35.8-79.8,79.8-79.8,79.9,35.7,79.9,79.8Z"/>
    <path class="st24" d="M260.7,501.1c3.5,5.5,6.5,11,6.5,11s3.1,5.5,5.9,11.4c15,30.8,23.5,65.4,23.5,102s-8.4,71.2-23.5,102c-22.9-22.7-38.2-53-41.7-86.8.5-5,.7-10.1.7-15.3s-.2-10.2-.7-15.3c-1.6-17.6-5.9-34.4-12.5-50-9.6-22.6-23.9-42.8-41.8-59.1-28.5-26.1-65.8-42.5-106.9-44.1v-64.6c57.1,1.6,109,23.8,148.7,59.3,22.1,22.9,36.9,41.7,41.7,49.4Z"/>
    <path class="st15" d="M70.2,793.9c41.1-1.6,78.5-18,106.9-44.1-4.6-7.2-8.7-14.7-12.5-22.4-15-30.8-23.5-65.4-23.5-102s8.4-71.2,23.5-102c22.9,22.7,38.2,53,41.7,86.8-.5,5-.7,10.1-.7,15.3s.2,10.2.7,15.3c1.6,17.6,5.9,34.4,12.5,50,9.6,22.6,23.9,42.8,41.8,59.1,28.5,26.1,65.8,42.5,106.9,44.1v64.6c-57.1-1.6-109-23.8-148.7-59.3-39.7,35.6-91.6,57.7-148.7,59.3v-64.6Z"/>
    <path class="st8" d="M177.1,749.8c-3.5-5.5-6.5-11-6.5-11s-3.1-5.5-5.9-11.4c-15-30.8-23.5-65.4-23.5-102s8.4-71.2,23.5-102c22.9,22.7,38.2,53,41.7,86.8-.5,5-.7,10.1-.7,15.3s.2,10.2.7,15.3c1.6,17.6,5.9,34.4,12.5,50,9.6,22.6,23.9,42.8,41.8,59.1,28.5,26.1,65.8,42.5,106.9,44.1v64.6c-57.1-1.6-109-23.8-148.7-59.3-22.1-22.9-36.9-41.7-41.7-49.4Z"/>
    <path class="st5" d="M1009.8,457c-41.1,1.6-78.5,18-106.9,44.1,4.6,7.2,8.7,14.7,12.5,22.4,15,30.8,23.5,65.4,23.5,102s-8.4,71.2-23.5,102c-22.9-22.7-38.2-53-41.7-86.8.5-5,.7-10.1.7-15.3s-.2-10.2-.7-15.3c-1.6-17.6-5.9-34.4-12.5-50-9.6-22.6-23.9-42.8-41.8-59.1-28.5-26.1-65.8-42.5-106.9-44.1v-64.6c57.1,1.6,109,23.8,148.7,59.3,39.7-35.6,91.6-57.7,148.7-59.3v64.6Z"/>
    <path class="st1" d="M902.9,501.1c3.5,5.5,6.5,11,6.5,11s3.1,5.5,5.9,11.4c15,30.8,23.5,65.4,23.5,102s-8.4,71.2-23.5,102c-22.9-22.7-38.2-53-41.7-86.8.5-5,.7-10.1.7-15.3s-.2-10.2-.7-15.3c-1.6-17.6-5.9-34.4-12.5-50-9.6-22.6-23.9-42.8-41.8-59.1-28.5-26.1-65.8-42.5-106.9-44.1v-64.6c57.1,1.6,109,23.8,148.7,59.3,22.1,22.9,36.9,41.7,41.7,49.4Z"/>
    <path class="st9" d="M712.4,793.9c41.1-1.6,78.5-18,106.9-44.1-4.6-7.2-8.7-14.7-12.5-22.4-15-30.8-23.5-65.4-23.5-102s8.4-71.2,23.5-102c22.9,22.7,38.2,53,41.7,86.8-.5,5-.7,10.1-.7,15.3s.2,10.2.7,15.3c1.6,17.6,5.9,34.4,12.5,50,9.6,22.6,23.9,42.8,41.8,59.1,28.5,26.1,65.8,42.5,106.9,44.1v64.6c-57.1-1.6-109-23.8-148.7-59.3-39.7,35.6-91.6,57.7-148.7,59.3v-64.6Z"/>
    <path class="st14" d="M819.3,749.8c-3.5-5.5-6.5-11-6.5-11s-3.1-5.5-5.9-11.4c-15-30.8-23.5-65.4-23.5-102s8.4-71.2,23.5-102c22.9,22.7,38.2,53,41.7,86.8-.5,5-.7,10.1-.7,15.3s.2,10.2.7,15.3c1.6,17.6,5.9,34.4,12.5,50,9.6,22.6,23.9,42.8,41.8,59.1,28.5,26.1,65.8,42.5,106.9,44.1v64.6c-57.1-1.6-109-23.8-148.7-59.3-22.1-22.9-36.9-41.7-41.7-49.4Z"/>
    <path class="st25" d="M688.7,457c-41.1,1.6-78.5,18-106.9,44.1,4.6,7.2,8.7,14.7,12.5,22.4,15,30.8,23.5,65.4,23.5,102s-8.4,71.2-23.5,102c-22.9-22.7-38.2-53-41.7-86.8.5-5,.7-10.1.7-15.3s-.2-10.2-.7-15.3c-1.6-17.6-5.9-34.4-12.5-50-9.6-22.6-23.9-42.8-41.8-59.1-28.5-26.1-65.8-42.5-106.9-44.1v-64.6c57.1,1.6,109,23.8,148.7,59.3,39.7-35.6,91.6-57.7,148.7-59.3v64.6Z"/>
    <path class="st18" d="M581.8,501.1c3.5,5.5,6.5,11,6.5,11s3.1,5.5,5.9,11.4c15,30.8,23.5,65.4,23.5,102s-8.4,71.2-23.5,102c-22.9-22.7-38.2-53-41.7-86.8.5-5,.7-10.1.7-15.3s-.2-10.2-.7-15.3c-1.6-17.6-5.9-34.4-12.5-50-9.6-22.6-23.9-42.8-41.8-59.1-28.5-26.1-65.8-42.5-106.9-44.1v-64.6c57.1,1.6,109,23.8,148.7,59.3,22.1,22.9,36.9,41.7,41.7,49.4Z"/>
    <path class="st22" d="M391.3,793.9c41.1-1.6,78.5-18,106.9-44.1-4.6-7.2-8.7-14.7-12.5-22.4-15-30.8-23.5-65.4-23.5-102s8.4-71.2,23.5-102c22.9,22.7,38.2,53,41.7,86.8-.5,5-.7,10.1-.7,15.3s.2,10.2.7,15.3c1.6,17.6,5.9,34.4,12.5,50,9.6,22.6,23.9,42.8,41.8,59.1,28.5,26.1,65.8,42.5,106.9,44.1v64.6c-57.1-1.6-109-23.8-148.7-59.3-39.7,35.6-91.6,57.7-148.7,59.3v-64.6Z"/>
    <path class="st10" d="M498.2,749.8c-3.5-5.5-6.5-11-6.5-11s-3.1-5.5-5.9-11.4c-15-30.8-23.5-65.4-23.5-102s8.4-71.2,23.5-102c22.9,22.7,38.2,53,41.7,86.8-.5,5-.7,10.1-.7,15.3s.2,10.2.7,15.3c1.6,17.6,5.9,34.4,12.5,50,9.6,22.6,23.9,42.8,41.8,59.1,28.5,26.1,65.8,42.5,106.9,44.1v64.6c-57.1-1.6-109-23.8-148.7-59.3-22.1-22.9-36.9-41.7-41.7-49.4Z"/>
  </g>
  <g>
    <path class="st23" d="M1788.7,392.4c-57.1,1.6-109,23.7-148.7,59.3-34.7-31.1-78.8-51.9-127.6-57.7-3.5-.4-7-.8-10.5-1-3.5-.3-7.1-.4-10.6-.5h0v64.6h0c2.1,0,4.2.2,6.3.4,38.6,3,73.7,19,100.7,43.7,17.9,16.3,32.2,36.5,41.8,59.1,6.6,15.6,10.9,32.4,12.5,50,.5,5,.7,10.1.7,15.3s-.2,10.2-.7,15.3c3.6,33.8,18.9,64.1,41.7,86.8h0s0,0,0,0c2.4-5,4.7-10,6.7-15.2,1.7-4.2,3.2-8.4,4.7-12.7.4-1.3.9-2.7,1.3-4,7-22.1,10.8-45.7,10.8-70.2,0-36.6-8.4-71.2-23.5-102-.7-1.5-1.5-3-2.2-4.4-.5-.9-1-1.9-1.5-2.8-1.3-2.5-2.2-4.1-2.2-4.1,0,0-1.1-2-2.7-4.8-.3-.5-.6-1-.9-1.5-.9-1.5-1.9-3.1-2.9-4.8,28.4-26.1,65.8-42.5,106.9-44.1v-64.6h0Z"/>
    <path class="st6" d="M1743.3,785.8c-.8-.3-1.7-.5-2.5-.8-4.7-1.6-9.2-3.4-13.7-5.4-1.1-.5-2.2-1-3.3-1.5-15.4-7.3-29.6-16.8-42-28.2-1.1-1-2.2-2.1-3.3-3.1-3.3-3.1-6.4-6.4-9.4-9.8-3.5-4-6.9-8.2-10-12.5-7.6-10.4-14-21.7-19-33.6-2.5-6-4.7-12.1-6.5-18.4-.9-3-1.6-6-2.3-9-.5-2.1-.9-4.2-1.3-6.4-1-5.3-1.8-10.8-2.3-16.3h0c-.3-3.6-.5-7.1-.6-10.7,0-.2,0-.5,0-.7,0-1.3,0-2.6,0-3.8,0-5.2.2-10.2.7-15.3h0c-3.6-33.8-18.9-64.1-41.7-86.8,0,0,0,0,0,0h0c-2.8,5.8-5.4,11.7-7.8,17.7-.8,2-1.5,4-2.3,6.1-1.5,4.1-2.8,8.2-4,12.4-.6,2.1-1.2,4.2-1.8,6.3-5,19-7.7,39-7.7,59.6h0s0,0,0,0,0,0,0,0c0,36.2,8.3,70.5,23,101,.2.3.3.7.5,1,.7,1.5,1.5,3,2.2,4.4.5.9,1,1.9,1.5,2.8,1.3,2.5,2.2,4.1,2.2,4.1,0,0,1.1,2,2.7,4.8.2.3.3.5.5.8.2.3.4.6.5.9.7,1.2,1.5,2.4,2.3,3.7.2.3.4.6.5.9-28.4,26.1-65.8,42.5-106.9,44.1h0s0,0,0,0v64.6c2.2,0,4.4-.2,6.6-.3,27.1-1.5,52.9-7.7,76.7-17.7,24.1-10.1,46.2-24.1,65.3-41.3,32.2,28.9,72.6,48.9,117.2,56.3,5,.8,10.1,1.5,15.3,2,5.4.5,10.8.9,16.2,1h0v-64.6h0c-1.6,0-3.2-.2-4.8-.3-14.1-1-27.7-3.7-40.6-7.9Z"/>
    <path class="st13" d="M1640,381.2c44.1,0,79.9-35.7,79.9-79.8s-35.8-79.8-79.9-79.8-79.8,35.7-79.8,79.8,35.8,79.8,79.8,79.8Z"/>
    <path class="st16" d="M1318.9,381.2c44.1,0,79.9-35.7,79.9-79.8s-35.8-79.8-79.9-79.8-79.8,35.7-79.8,79.8,35.8,79.8,79.8,79.8Z"/>
    <path class="st2" d="M1961.1,381.2c44.1,0,79.9-35.7,79.9-79.8s-35.8-79.8-79.9-79.8-79.8,35.7-79.8,79.8,35.8,79.8,79.8,79.8Z"/>
    <path class="st12" d="M1318.9,451.7c-34.7-31.1-78.8-51.9-127.6-57.7-3.5-.4-7-.8-10.5-1-3.5-.3-7.1-.4-10.6-.5h0v64.6h0c2.6.1,5.1.3,7.7.5,6.3.5,12.6,1.4,18.7,2.7,30.6,6.1,58.3,20.6,80.5,41,3.4,3.1,6.6,6.3,9.7,9.6,2.1,2.2,4.1,4.5,6,6.8,1.9,2.3,3.8,4.7,5.6,7.1s3.6,4.9,5.3,7.4c5.9,8.8,11,18.3,15.2,28.2,5.8,13.7,9.8,28.2,11.7,43.5.3,2.2.5,4.4.7,6.6.2,2.5.4,5.1.5,7.6s.2,5.1.2,7.7c0,5.1-.2,10.2-.7,15.3h0c3.6,33.8,18.9,64.1,41.7,86.8,2.4-5,4.7-10,6.7-15.2,1.7-4.2,3.2-8.4,4.7-12.7.4-1.3.9-2.7,1.3-4,7-22.1,10.8-45.7,10.8-70.2,0-36.6-8.4-71.2-23.5-102-.7-1.5-1.5-3-2.2-4.4-.5-.9-1-1.9-1.5-2.8-1.3-2.5-2.2-4.1-2.2-4.1,0,0-1.1-2-2.7-4.8-.3-.5-.6-1-.9-1.5-.9-1.5-1.9-3.1-2.9-4.8,28.4-26.1,65.8-42.5,106.9-44.1v-64.6c-57.1,1.6-109,23.7-148.7,59.3h0Z"/>
    <path class="st7" d="M1419.7,785c-4.7-1.6-9.2-3.4-13.7-5.4-1.1-.5-2.2-1-3.3-1.5-15.4-7.3-29.6-16.8-42-28.2-1.1-1-2.2-2.1-3.3-3.1-3.3-3.1-6.4-6.4-9.4-9.8-12-13.6-21.9-29.2-29-46.1-3.7-8.8-6.7-17.9-8.9-27.4-.5-2.1-.9-4.2-1.3-6.4-1-5.3-1.8-10.8-2.3-16.3-.4-3.8-.6-7.6-.7-11.4,0-1.3,0-2.6,0-3.9s0-2.6,0-3.8c0-1.3,0-2.6.1-3.8.1-2.5.3-5.1.5-7.6h0c-1.7-15.8-5.9-30.9-12.3-44.8-.9-1.9-1.7-3.7-2.7-5.5-1.4-2.7-2.9-5.4-4.4-8-3.1-5.2-6.5-10.2-10.3-15-3.7-4.8-7.7-9.3-12-13.5-2.8,5.8-5.4,11.7-7.8,17.7-.8,2-1.5,4-2.3,6.1-1.5,4.1-2.8,8.2-4,12.4-.6,2.1-1.2,4.2-1.8,6.3-5,19-7.7,39-7.7,59.6h0c0,13.7,1.2,27.2,3.5,40.2.4,2.2.8,4.3,1.2,6.5.9,4.3,1.9,8.6,3,12.8,1.7,6.3,3.6,12.6,5.8,18.7,1.5,4.1,3,8.1,4.7,12.1.8,2,1.7,4,2.6,5.9s1.8,3.9,2.7,5.8c.7,1.5,1.5,3,2.2,4.4.5.9,1,1.9,1.5,2.8,1.3,2.5,2.2,4.1,2.2,4.1,0,0,1.1,2,2.7,4.8.3.5.6,1,.9,1.5.9,1.5,1.9,3.1,2.9,4.8-28.4,26.1-65.8,42.5-106.9,44.1v64.6c57.1-1.6,109-23.7,148.7-59.3h0c32.2,28.9,72.6,48.9,117.2,56.3,6.9,1.1,13.8,2,20.9,2.5,3.5.3,7.1.4,10.6.5h0v-64.6h0c-10.3-.4-20.3-1.7-30.1-3.9-6.1-1.4-12-3-17.9-5Z"/>
    <path class="st11" d="M1961.1,451.7h0c-32.2-28.9-72.6-48.9-117.2-56.3-1.7-.3-3.4-.5-5.2-.8-5.3-.8-10.6-1.3-16-1.7-3.4-.2-6.8-.4-10.3-.5v64.6h0c2.5,0,4.9.3,7.4.5,38.2,3.2,72.8,19.2,99.6,43.6,5.6,5.1,10.8,10.6,15.7,16.4,1.9,2.3,3.8,4.7,5.6,7.1,1.8,2.4,3.6,4.9,5.3,7.4,5.9,8.8,11,18.3,15.2,28.2,2.1,4.9,3.9,9.9,5.5,15,2.9,9.2,5,18.7,6.3,28.5.3,2.2.5,4.4.7,6.6.2,2.5.4,5.1.5,7.6.1,2.5.2,5.1.2,7.7,0,5.1-.2,10.2-.7,15.3h0c3.6,33.8,18.9,64.1,41.7,86.8,15-30.8,23.5-65.4,23.5-102h0c0-18.3-2.1-36.1-6.1-53.2s-2.1-8.5-3.3-12.7c-1.2-4.2-2.6-8.3-4-12.4-.7-2-1.5-4.1-2.3-6.1-2.3-6-4.9-11.9-7.8-17.7-.7-1.5-1.5-3-2.2-4.4-.5-.9-1-1.9-1.5-2.8-1.3-2.5-2.2-4.1-2.2-4.1,0,0-1.1-2-2.7-4.8-.3-.5-.6-1-.9-1.4-.9-1.5-1.9-3.1-2.9-4.8,28.4-26.1,65.8-42.5,106.9-44.1v-64.6c-57.1,1.6-109,23.7-148.7,59.3Z"/>
    <path class="st21" d="M2061.9,785c-4.7-1.6-9.2-3.4-13.7-5.4-1.1-.5-2.2-1-3.3-1.5-15.4-7.3-29.6-16.8-42-28.2-1.1-1-2.2-2.1-3.3-3.1-3.3-3.1-6.4-6.4-9.4-9.8-12-13.6-21.9-29.2-29-46.1-3.7-8.8-6.7-17.9-8.9-27.4-.5-2.1-.9-4.2-1.3-6.4-1-5.3-1.8-10.8-2.3-16.3-.4-3.8-.6-7.6-.7-11.4,0-1.3,0-2.6,0-3.9s0-2.6,0-3.8c0-1.3,0-2.6.1-3.8.1-2.5.3-5.1.5-7.6h0c-1.7-15.8-5.9-30.9-12.3-44.8-.9-1.9-1.7-3.7-2.7-5.5-1.4-2.7-2.9-5.4-4.4-8-3.1-5.2-6.5-10.2-10.3-15-3.7-4.8-7.7-9.3-12-13.5-2.8,5.8-5.4,11.7-7.8,17.7-.8,2-1.5,4-2.3,6.1-1.5,4.1-2.8,8.2-4,12.4-.6,2.1-1.2,4.2-1.8,6.3-5,19-7.7,39-7.7,59.6h0c0,13.7,1.2,27.2,3.5,40.2.4,2.2.8,4.3,1.2,6.5.9,4.3,1.9,8.6,3,12.8,1.7,6.3,3.6,12.6,5.8,18.7,1.5,4.1,3,8.1,4.7,12.1.8,2,1.7,4,2.6,5.9s1.8,3.9,2.7,5.8c.7,1.5,1.5,3,2.2,4.4.5.9,1,1.9,1.5,2.8,1.3,2.5,2.2,4.1,2.2,4.1,0,0,1.1,2,2.7,4.8.3.5.6,1,.9,1.5.9,1.5,1.9,3.1,2.9,4.8-28.4,26.1-65.8,42.5-106.9,44.1v64.6c57.1-1.6,109-23.7,148.7-59.3h0c32.2,28.9,72.6,48.9,117.2,56.3,6.9,1.1,13.8,2,20.9,2.5s7.1.4,10.6.5h0v-64.6h0c-10.3-.4-20.3-1.7-30.1-3.9-6.1-1.4-12-3-17.9-5Z"/>
  </g>
  <g>
    <path d="M2888.7,392.4c-57.1,1.6-109,23.7-148.7,59.3-34.7-31.1-78.8-51.9-127.6-57.7-3.5-.4-7-.8-10.5-1-3.5-.3-7.1-.4-10.6-.5h0v64.6h0c2.1,0,4.2.2,6.3.4,38.6,3,73.7,19,100.7,43.7,17.9,16.3,32.2,36.5,41.8,59.1,6.6,15.6,10.9,32.4,12.5,50,.5,5,.7,10.1.7,15.3s-.2,10.2-.7,15.3c3.6,33.8,18.9,64.1,41.7,86.8h0s0,0,0,0c2.4-5,4.7-10,6.7-15.2,1.7-4.2,3.2-8.4,4.7-12.7.4-1.3.9-2.7,1.3-4,7-22.1,10.8-45.7,10.8-70.2,0-36.6-8.4-71.2-23.5-102-.7-1.5-1.5-3-2.2-4.4-.5-.9-1-1.9-1.5-2.8-1.3-2.5-2.2-4.1-2.2-4.1,0,0-1.1-2-2.7-4.8-.3-.5-.6-1-.9-1.5-.9-1.5-1.9-3.1-2.9-4.8,28.4-26.1,65.8-42.5,106.9-44.1v-64.6h0Z"/>
    <path d="M2843.3,785.8c-.8-.3-1.7-.5-2.5-.8-4.7-1.6-9.2-3.4-13.7-5.4-1.1-.5-2.2-1-3.3-1.5-15.4-7.3-29.6-16.8-42-28.2-1.1-1-2.2-2.1-3.3-3.1-3.3-3.1-6.4-6.4-9.4-9.8-3.5-4-6.9-8.2-10-12.5-7.6-10.4-14-21.7-19-33.6-2.5-6-4.7-12.1-6.5-18.4-.9-3-1.6-6-2.3-9-.5-2.1-.9-4.2-1.3-6.4-1-5.3-1.8-10.8-2.3-16.3h0c-.3-3.6-.5-7.1-.6-10.7,0-.2,0-.5,0-.7,0-1.3,0-2.6,0-3.8,0-5.2.2-10.2.7-15.3h0c-3.6-33.8-18.9-64.1-41.7-86.8,0,0,0,0,0,0h0c-2.8,5.8-5.4,11.7-7.8,17.7-.8,2-1.5,4-2.3,6.1-1.5,4.1-2.8,8.2-4,12.4-.6,2.1-1.2,4.2-1.8,6.3-5,19-7.7,39-7.7,59.6h0s0,0,0,0h0c0,36.2,8.3,70.5,23,101,.2.3.3.7.5,1,.7,1.5,1.5,3,2.2,4.4.5.9,1,1.9,1.5,2.8,1.3,2.5,2.2,4.1,2.2,4.1,0,0,1.1,2,2.7,4.8.2.3.3.5.5.8.2.3.4.6.5.9.7,1.2,1.5,2.4,2.3,3.7.2.3.4.6.5.9-28.4,26.1-65.8,42.5-106.9,44.1h0s0,0,0,0v64.6c2.2,0,4.4-.2,6.6-.3,27.1-1.5,52.9-7.7,76.7-17.7,24.1-10.1,46.2-24.1,65.3-41.3,32.2,28.9,72.6,48.9,117.2,56.3,5,.8,10.1,1.5,15.3,2,5.4.5,10.8.9,16.2,1h0v-64.6h0c-1.6,0-3.2-.2-4.8-.3-14.1-1-27.7-3.7-40.6-7.9Z"/>
    <path d="M2740,381.2c44.1,0,79.9-35.7,79.9-79.8s-35.8-79.8-79.9-79.8-79.8,35.7-79.8,79.8,35.8,79.8,79.8,79.8Z"/>
    <path d="M2418.9,381.2c44.1,0,79.9-35.7,79.9-79.8s-35.8-79.8-79.9-79.8-79.8,35.7-79.8,79.8,35.8,79.8,79.8,79.8Z"/>
    <path d="M3061.1,381.2c44.1,0,79.9-35.7,79.9-79.8s-35.8-79.8-79.9-79.8-79.8,35.7-79.8,79.8,35.8,79.8,79.8,79.8Z"/>
    <path d="M2418.9,451.7c-34.7-31.1-78.8-51.9-127.6-57.7-3.5-.4-7-.8-10.5-1-3.5-.3-7.1-.4-10.6-.5h0v64.6h0c2.6.1,5.1.3,7.7.5,6.3.5,12.6,1.4,18.7,2.7,30.6,6.1,58.3,20.6,80.5,41,3.4,3.1,6.6,6.3,9.7,9.6,2.1,2.2,4.1,4.5,6,6.8,1.9,2.3,3.8,4.7,5.6,7.1,1.8,2.4,3.6,4.9,5.3,7.4,5.9,8.8,11,18.3,15.2,28.2,5.8,13.7,9.8,28.2,11.7,43.5.3,2.2.5,4.4.7,6.6.2,2.5.4,5.1.5,7.6.1,2.5.2,5.1.2,7.7,0,5.1-.2,10.2-.7,15.3h0c3.6,33.8,18.9,64.1,41.7,86.8,2.4-5,4.7-10,6.7-15.2,1.7-4.2,3.2-8.4,4.7-12.7.4-1.3.9-2.7,1.3-4,7-22.1,10.8-45.7,10.8-70.2,0-36.6-8.4-71.2-23.5-102-.7-1.5-1.5-3-2.2-4.4-.5-.9-1-1.9-1.5-2.8-1.3-2.5-2.2-4.1-2.2-4.1,0,0-1.1-2-2.7-4.8-.3-.5-.6-1-.9-1.5-.9-1.5-1.9-3.1-2.9-4.8,28.4-26.1,65.8-42.5,106.9-44.1v-64.6c-57.1,1.6-109,23.7-148.7,59.3h0Z"/>
    <path d="M2519.7,785c-4.7-1.6-9.2-3.4-13.7-5.4-1.1-.5-2.2-1-3.3-1.5-15.4-7.3-29.6-16.8-42-28.2-1.1-1-2.2-2.1-3.3-3.1-3.3-3.1-6.4-6.4-9.4-9.8-12-13.6-21.9-29.2-29-46.1-3.7-8.8-6.7-17.9-8.9-27.4-.5-2.1-.9-4.2-1.3-6.4-1-5.3-1.8-10.8-2.3-16.3-.4-3.8-.6-7.6-.7-11.4,0-1.3,0-2.6,0-3.9s0-2.6,0-3.8c0-1.3,0-2.6.1-3.8.1-2.5.3-5.1.5-7.6h0c-1.7-15.8-5.9-30.9-12.3-44.8-.9-1.9-1.7-3.7-2.7-5.5-1.4-2.7-2.9-5.4-4.4-8-3.1-5.2-6.5-10.2-10.3-15-3.7-4.8-7.7-9.3-12-13.5-2.8,5.8-5.4,11.7-7.8,17.7-.8,2-1.5,4-2.3,6.1-1.5,4.1-2.8,8.2-4,12.4-.6,2.1-1.2,4.2-1.8,6.3-5,19-7.7,39-7.7,59.6h0c0,13.7,1.2,27.2,3.5,40.2.4,2.2.8,4.3,1.2,6.5.9,4.3,1.9,8.6,3,12.8,1.7,6.3,3.6,12.6,5.8,18.7,1.5,4.1,3,8.1,4.7,12.1.8,2,1.7,4,2.6,5.9s1.8,3.9,2.7,5.8c.7,1.5,1.5,3,2.2,4.4.5.9,1,1.9,1.5,2.8,1.3,2.5,2.2,4.1,2.2,4.1,0,0,1.1,2,2.7,4.8.3.5.6,1,.9,1.5.9,1.5,1.9,3.1,2.9,4.8-28.4,26.1-65.8,42.5-106.9,44.1v64.6c57.1-1.6,109-23.7,148.7-59.3h0c32.2,28.9,72.6,48.9,117.2,56.3,6.9,1.1,13.8,2,20.9,2.5,3.5.3,7.1.4,10.6.5h0v-64.6h0c-10.3-.4-20.3-1.7-30.1-3.9-6.1-1.4-12-3-17.9-5Z"/>
    <path d="M3061.1,451.7h0c-32.2-28.9-72.6-48.9-117.2-56.3-1.7-.3-3.4-.5-5.2-.8-5.3-.8-10.6-1.3-16-1.7-3.4-.2-6.8-.4-10.3-.5v64.6h0c2.5,0,4.9.3,7.4.5,38.2,3.2,72.8,19.2,99.6,43.6,5.6,5.1,10.8,10.6,15.7,16.4,1.9,2.3,3.8,4.7,5.6,7.1,1.8,2.4,3.6,4.9,5.3,7.4,5.9,8.8,11,18.3,15.2,28.2,2.1,4.9,3.9,9.9,5.5,15,2.9,9.2,5,18.7,6.3,28.5.3,2.2.5,4.4.7,6.6.2,2.5.4,5.1.5,7.6s.2,5.1.2,7.7c0,5.1-.2,10.2-.7,15.3h0c3.6,33.8,18.9,64.1,41.7,86.8,15-30.8,23.5-65.4,23.5-102h0c0-18.3-2.1-36.1-6.1-53.2s-2.1-8.5-3.3-12.7-2.6-8.3-4-12.4c-.7-2-1.5-4.1-2.3-6.1-2.3-6-4.9-11.9-7.8-17.7-.7-1.5-1.5-3-2.2-4.4-.5-.9-1-1.9-1.5-2.8-1.3-2.5-2.2-4.1-2.2-4.1,0,0-1.1-2-2.7-4.8-.3-.5-.6-1-.9-1.4-.9-1.5-1.9-3.1-2.9-4.8,28.4-26.1,65.8-42.5,106.9-44.1v-64.6c-57.1,1.6-109,23.7-148.7,59.3Z"/>
    <path d="M3161.9,785c-4.7-1.6-9.2-3.4-13.7-5.4-1.1-.5-2.2-1-3.3-1.5-15.4-7.3-29.6-16.8-42-28.2-1.1-1-2.2-2.1-3.3-3.1-3.3-3.1-6.4-6.4-9.4-9.8-12-13.6-21.9-29.2-29-46.1-3.7-8.8-6.7-17.9-8.9-27.4-.5-2.1-.9-4.2-1.3-6.4-1-5.3-1.8-10.8-2.3-16.3-.4-3.8-.6-7.6-.7-11.4,0-1.3,0-2.6,0-3.9s0-2.6,0-3.8c0-1.3,0-2.6.1-3.8.1-2.5.3-5.1.5-7.6h0c-1.7-15.8-5.9-30.9-12.3-44.8-.9-1.9-1.7-3.7-2.7-5.5-1.4-2.7-2.9-5.4-4.4-8-3.1-5.2-6.5-10.2-10.3-15-3.7-4.8-7.7-9.3-12-13.5-2.8,5.8-5.4,11.7-7.8,17.7-.8,2-1.5,4-2.3,6.1-1.5,4.1-2.8,8.2-4,12.4-.6,2.1-1.2,4.2-1.8,6.3-5,19-7.7,39-7.7,59.6h0c0,13.7,1.2,27.2,3.5,40.2.4,2.2.8,4.3,1.2,6.5.9,4.3,1.9,8.6,3,12.8,1.7,6.3,3.6,12.6,5.8,18.7,1.5,4.1,3,8.1,4.7,12.1.8,2,1.7,4,2.6,5.9s1.8,3.9,2.7,5.8c.7,1.5,1.5,3,2.2,4.4.5.9,1,1.9,1.5,2.8,1.3,2.5,2.2,4.1,2.2,4.1,0,0,1.1,2,2.7,4.8.3.5.6,1,.9,1.5.9,1.5,1.9,3.1,2.9,4.8-28.4,26.1-65.8,42.5-106.9,44.1v64.6c57.1-1.6,109-23.7,148.7-59.3h0c32.2,28.9,72.6,48.9,117.2,56.3,6.9,1.1,13.8,2,20.9,2.5,3.5.3,7.1.4,10.6.5h0v-64.6h0c-10.3-.4-20.3-1.7-30.1-3.9-6.1-1.4-12-3-17.9-5Z"/>
  </g>
  <g>
    <path class="st3" d="M3988.7,392.4c-57.1,1.6-109,23.7-148.7,59.3-34.7-31.1-78.8-51.9-127.6-57.7-3.5-.4-7-.8-10.5-1-3.5-.3-7.1-.4-10.6-.5h0v64.6h0c2.1,0,4.2.2,6.3.4,38.6,3,73.7,19,100.7,43.7,17.9,16.3,32.2,36.5,41.8,59.1,6.6,15.6,10.9,32.4,12.5,50,.5,5,.7,10.1.7,15.3s-.2,10.2-.7,15.3c3.6,33.8,18.9,64.1,41.7,86.8h0s0,0,0,0c2.4-5,4.7-10,6.7-15.2,1.7-4.2,3.2-8.4,4.7-12.7.4-1.3.9-2.7,1.3-4,7-22.1,10.8-45.7,10.8-70.2,0-36.6-8.4-71.2-23.5-102-.7-1.5-1.5-3-2.2-4.4-.5-.9-1-1.9-1.5-2.8-1.3-2.5-2.2-4.1-2.2-4.1,0,0-1.1-2-2.7-4.8-.3-.5-.6-1-.9-1.5-.9-1.5-1.9-3.1-2.9-4.8,28.4-26.1,65.8-42.5,106.9-44.1v-64.6h0Z"/>
    <path class="st3" d="M3943.3,785.8c-.8-.3-1.7-.5-2.5-.8-4.7-1.6-9.2-3.4-13.7-5.4-1.1-.5-2.2-1-3.3-1.5-15.4-7.3-29.6-16.8-42-28.2-1.1-1-2.2-2.1-3.3-3.1-3.3-3.1-6.4-6.4-9.4-9.8-3.5-4-6.9-8.2-10-12.5-7.6-10.4-14-21.7-19-33.6-2.5-6-4.7-12.1-6.5-18.4-.9-3-1.6-6-2.3-9-.5-2.1-.9-4.2-1.3-6.4-1-5.3-1.8-10.8-2.3-16.3h0c-.3-3.6-.5-7.1-.6-10.7,0-.2,0-.5,0-.7,0-1.3,0-2.6,0-3.8,0-5.2.2-10.2.7-15.3h0c-3.6-33.8-18.9-64.1-41.7-86.8,0,0,0,0,0,0h0c-2.8,5.8-5.4,11.7-7.8,17.7-.8,2-1.5,4-2.3,6.1-1.5,4.1-2.8,8.2-4,12.4-.6,2.1-1.2,4.2-1.8,6.3-5,19-7.7,39-7.7,59.6h0s0,0,0,0h0c0,36.2,8.3,70.5,23,101,.2.3.3.7.5,1,.7,1.5,1.5,3,2.2,4.4.5.9,1,1.9,1.5,2.8,1.3,2.5,2.2,4.1,2.2,4.1,0,0,1.1,2,2.7,4.8.2.3.3.5.5.8.2.3.4.6.5.9.7,1.2,1.5,2.4,2.3,3.7.2.3.4.6.5.9-28.4,26.1-65.8,42.5-106.9,44.1h0s0,0,0,0v64.6c2.2,0,4.4-.2,6.6-.3,27.1-1.5,52.9-7.7,76.7-17.7,24.1-10.1,46.2-24.1,65.3-41.3,32.2,28.9,72.6,48.9,117.2,56.3,5,.8,10.1,1.5,15.3,2,5.4.5,10.8.9,16.2,1h0v-64.6h0c-1.6,0-3.2-.2-4.8-.3-14.1-1-27.7-3.7-40.6-7.9Z"/>
    <path class="st3" d="M3840,381.2c44.1,0,79.9-35.7,79.9-79.8s-35.8-79.8-79.9-79.8-79.8,35.7-79.8,79.8,35.8,79.8,79.8,79.8Z"/>
    <path class="st3" d="M3518.9,381.2c44.1,0,79.9-35.7,79.9-79.8s-35.8-79.8-79.9-79.8-79.8,35.7-79.8,79.8,35.8,79.8,79.8,79.8Z"/>
    <path class="st3" d="M4161.1,381.2c44.1,0,79.9-35.7,79.9-79.8s-35.8-79.8-79.9-79.8-79.8,35.7-79.8,79.8,35.8,79.8,79.8,79.8Z"/>
    <path class="st3" d="M3518.9,451.7c-34.7-31.1-78.8-51.9-127.6-57.7-3.5-.4-7-.8-10.5-1-3.5-.3-7.1-.4-10.6-.5h0v64.6h0c2.6.1,5.1.3,7.7.5,6.3.5,12.6,1.4,18.7,2.7,30.6,6.1,58.3,20.6,80.5,41,3.4,3.1,6.6,6.3,9.7,9.6,2.1,2.2,4.1,4.5,6,6.8,1.9,2.3,3.8,4.7,5.6,7.1,1.8,2.4,3.6,4.9,5.3,7.4,5.9,8.8,11,18.3,15.2,28.2,5.8,13.7,9.8,28.2,11.7,43.5.3,2.2.5,4.4.7,6.6.2,2.5.4,5.1.5,7.6.1,2.5.2,5.1.2,7.7,0,5.1-.2,10.2-.7,15.3h0c3.6,33.8,18.9,64.1,41.7,86.8,2.4-5,4.7-10,6.7-15.2,1.7-4.2,3.2-8.4,4.7-12.7.4-1.3.9-2.7,1.3-4,7-22.1,10.8-45.7,10.8-70.2,0-36.6-8.4-71.2-23.5-102-.7-1.5-1.5-3-2.2-4.4-.5-.9-1-1.9-1.5-2.8-1.3-2.5-2.2-4.1-2.2-4.1s-1.1-2-2.7-4.8c-.3-.5-.6-1-.9-1.5-.9-1.5-1.9-3.1-2.9-4.8,28.4-26.1,65.8-42.5,106.9-44.1v-64.6c-57.1,1.6-109,23.7-148.7,59.3h0Z"/>
    <path class="st3" d="M3619.7,785c-4.7-1.6-9.2-3.4-13.7-5.4-1.1-.5-2.2-1-3.3-1.5-15.4-7.3-29.6-16.8-42-28.2-1.1-1-2.2-2.1-3.3-3.1-3.3-3.1-6.4-6.4-9.4-9.8-12-13.6-21.9-29.2-29-46.1-3.7-8.8-6.7-17.9-8.9-27.4-.5-2.1-.9-4.2-1.3-6.4-1-5.3-1.8-10.8-2.3-16.3-.4-3.8-.6-7.6-.7-11.4,0-1.3,0-2.6,0-3.9s0-2.6,0-3.8c0-1.3,0-2.6.1-3.8.1-2.5.3-5.1.5-7.6h0c-1.7-15.8-5.9-30.9-12.3-44.8-.9-1.9-1.7-3.7-2.7-5.5-1.4-2.7-2.9-5.4-4.4-8-3.1-5.2-6.5-10.2-10.3-15-3.7-4.8-7.7-9.3-12-13.5-2.8,5.8-5.4,11.7-7.8,17.7-.8,2-1.5,4-2.3,6.1-1.5,4.1-2.8,8.2-4,12.4-.6,2.1-1.2,4.2-1.8,6.3-5,19-7.7,39-7.7,59.6h0c0,13.7,1.2,27.2,3.5,40.2.4,2.2.8,4.3,1.2,6.5.9,4.3,1.9,8.6,3,12.8,1.7,6.3,3.6,12.6,5.8,18.7,1.5,4.1,3,8.1,4.7,12.1.8,2,1.7,4,2.6,5.9s1.8,3.9,2.7,5.8c.7,1.5,1.5,3,2.2,4.4.5.9,1,1.9,1.5,2.8,1.3,2.5,2.2,4.1,2.2,4.1,0,0,1.1,2,2.7,4.8.3.5.6,1,.9,1.5.9,1.5,1.9,3.1,2.9,4.8-28.4,26.1-65.8,42.5-106.9,44.1v64.6c57.1-1.6,109-23.7,148.7-59.3h0c32.2,28.9,72.6,48.9,117.2,56.3,6.9,1.1,13.8,2,20.9,2.5,3.5.3,7.1.4,10.6.5h0v-64.6h0c-10.3-.4-20.3-1.7-30.1-3.9-6.1-1.4-12-3-17.9-5Z"/>
    <path class="st3" d="M4161.1,451.7h0c-32.2-28.9-72.6-48.9-117.2-56.3-1.7-.3-3.4-.5-5.2-.8-5.3-.8-10.6-1.3-16-1.7-3.4-.2-6.8-.4-10.3-.5v64.6h0c2.5,0,4.9.3,7.4.5,38.2,3.2,72.8,19.2,99.6,43.6,5.6,5.1,10.8,10.6,15.7,16.4,1.9,2.3,3.8,4.7,5.6,7.1,1.8,2.4,3.6,4.9,5.3,7.4,5.9,8.8,11,18.3,15.2,28.2,2.1,4.9,3.9,9.9,5.5,15,2.9,9.2,5,18.7,6.3,28.5.3,2.2.5,4.4.7,6.6.2,2.5.4,5.1.5,7.6s.2,5.1.2,7.7c0,5.1-.2,10.2-.7,15.3h0c3.6,33.8,18.9,64.1,41.7,86.8,15-30.8,23.5-65.4,23.5-102h0c0-18.3-2.1-36.1-6.1-53.2s-2.1-8.5-3.3-12.7-2.6-8.3-4-12.4c-.7-2-1.5-4.1-2.3-6.1-2.3-6-4.9-11.9-7.8-17.7-.7-1.5-1.5-3-2.2-4.4-.5-.9-1-1.9-1.5-2.8-1.3-2.5-2.2-4.1-2.2-4.1,0,0-1.1-2-2.7-4.8-.3-.5-.6-1-.9-1.4-.9-1.5-1.9-3.1-2.9-4.8,28.4-26.1,65.8-42.5,106.9-44.1v-64.6c-57.1,1.6-109,23.7-148.7,59.3Z"/>
    <path class="st3" d="M4261.9,785c-4.7-1.6-9.2-3.4-13.7-5.4-1.1-.5-2.2-1-3.3-1.5-15.4-7.3-29.6-16.8-42-28.2-1.1-1-2.2-2.1-3.3-3.1-3.3-3.1-6.4-6.4-9.4-9.8-12-13.6-21.9-29.2-29-46.1-3.7-8.8-6.7-17.9-8.9-27.4-.5-2.1-.9-4.2-1.3-6.4-1-5.3-1.8-10.8-2.3-16.3-.4-3.8-.6-7.6-.7-11.4,0-1.3,0-2.6,0-3.9s0-2.6,0-3.8c0-1.3,0-2.6.1-3.8.1-2.5.3-5.1.5-7.6h0c-1.7-15.8-5.9-30.9-12.3-44.8-.9-1.9-1.7-3.7-2.7-5.5-1.4-2.7-2.9-5.4-4.4-8-3.1-5.2-6.5-10.2-10.3-15-3.7-4.8-7.7-9.3-12-13.5-2.8,5.8-5.4,11.7-7.8,17.7-.8,2-1.5,4-2.3,6.1-1.5,4.1-2.8,8.2-4,12.4-.6,2.1-1.2,4.2-1.8,6.3-5,19-7.7,39-7.7,59.6h0c0,13.7,1.2,27.2,3.5,40.2.4,2.2.8,4.3,1.2,6.5.9,4.3,1.9,8.6,3,12.8,1.7,6.3,3.6,12.6,5.8,18.7,1.5,4.1,3,8.1,4.7,12.1.8,2,1.7,4,2.6,5.9s1.8,3.9,2.7,5.8c.7,1.5,1.5,3,2.2,4.4.5.9,1,1.9,1.5,2.8,1.3,2.5,2.2,4.1,2.2,4.1,0,0,1.1,2,2.7,4.8.3.5.6,1,.9,1.5.9,1.5,1.9,3.1,2.9,4.8-28.4,26.1-65.8,42.5-106.9,44.1v64.6c57.1-1.6,109-23.7,148.7-59.3h0c32.2,28.9,72.6,48.9,117.2,56.3,6.9,1.1,13.8,2,20.9,2.5,3.5.3,7.1.4,10.6.5h0v-64.6h0c-10.3-.4-20.3-1.7-30.1-3.9-6.1-1.4-12-3-17.9-5Z"/>
  </g>
</svg>